<svg width="1024" height="920" viewBox="0 0 1024 920" fill="none" xmlns="http://www.w3.org/2000/svg">
<path d="M683.439 65.2694C741.104 42.8564 809.188 30.8884 879.72 21.3594C885.754 242.612 880.59 475.044 882.315 700.598C738.518 712.621 619.574 763.289 520.741 811.646C520.741 588.678 520.741 365.711 520.741 142.752C536.753 124.319 563.999 117.138 585.303 104.006" fill="white"/>
<path d="M683.439 65.2694C741.104 42.8564 809.188 30.8884 879.72 21.3594C885.754 242.612 880.59 475.044 882.315 700.598C738.518 712.621 619.574 763.289 520.741 811.646C520.741 588.678 520.741 365.711 520.741 142.752C536.753 124.319 563.999 117.138 585.303 104.006" fill="white"/>
<path d="M683.439 65.2694C741.104 42.8564 809.188 30.8884 879.72 21.3594C885.754 242.612 880.59 475.044 882.315 700.598C738.518 712.621 619.574 763.289 520.741 811.646C520.741 588.678 520.741 365.711 520.741 142.752C536.753 124.319 563.999 117.138 585.303 104.006" fill="white"/>
<path d="M1022.91 799.204C1022.69 793.014 1022.46 786.823 1022.46 780.67C1022.46 718.125 1022.57 654.71 1022.67 591.147C1022.89 465.352 1023.12 335.284 1022.46 212.36C1022.44 209.764 1022.66 206.803 1022.86 203.73C1023.85 188.443 1025.34 165.47 1006.55 155.19C998.692 150.504 989.925 149.944 983.918 149.944C980.672 149.944 977.287 150.137 974.004 150.338C971.812 150.475 969.684 150.623 967.777 150.623C967.383 150.623 967.117 150.631 966.824 150.604C965.576 150.338 964.32 150.265 963.064 150.228V98.8345C963.064 92.8285 960.524 87.0865 956.066 83.0425C951.618 78.9885 945.639 77.0075 939.687 77.5675C927.673 78.7045 919.685 78.7415 907.516 77.6125C905.774 77.4565 904.05 77.5755 902.362 77.8335C901.986 58.7125 901.573 39.6735 901.06 20.7725C900.895 14.7105 898.162 9.00655 893.54 5.08155C888.919 1.15655 882.856 -0.604451 876.85 0.184549C812.775 8.84155 738.932 20.9285 676.571 45.0115C647.023 53.6225 627.489 59.3176 575.83 84.8576C575.225 85.1516 574.647 85.4725 574.079 85.8215C567.715 89.7455 560.378 93.2225 552.611 96.9085C539.524 103.109 525.08 110.042 512.929 120.561C512.057 119.891 511.132 119.277 510.15 118.745C408.024 64.0685 157.342 7.53155 139.22 7.53155C128.17 7.53155 122.502 14.4276 120.576 17.3986C118.284 20.9206 117.128 25.0106 117.128 29.1096V77.5315C116.78 77.5225 116.449 77.4485 116.101 77.4665C111.149 77.6875 103.611 77.6045 96.0181 77.5315C91.9001 77.4945 87.7641 77.4486 83.9221 77.4486L78.8321 77.4755C67.1301 77.6225 57.7301 87.1415 57.7301 98.8345V149.403C56.0251 149.247 54.2181 149.137 52.1361 149.137C41.7641 149.137 25.9631 151.072 17.7191 152.869C7.87813 155.015 0.872135 163.745 0.918135 173.825C1.31214 274.896 1.07413 380.102 0.835128 481.842C0.588128 593.844 0.321135 709.652 0.918135 819.517C0.927135 822.112 0.716129 825.074 0.514129 828.146C-0.429871 842.654 -1.81487 864.077 14.0961 875.018C21.8641 882.172 32.7041 885.794 46.3591 885.794C54.7781 885.794 63.3711 884.501 70.9451 883.364C74.5491 882.823 78.0071 882.291 81.1431 881.988C120.127 878.219 160.02 876.303 199.711 876.303C285.943 876.303 367.48 885.235 435.517 902.118C441.762 903.677 448.374 906.061 455.381 908.592C466.551 912.627 478.107 916.8 489.964 918.112C495.512 918.726 501.051 919.038 506.443 919.038C529.856 919.038 547.868 913.398 565.283 907.951C572.097 905.814 578.525 903.806 585.293 902.118C653.422 885.134 734.17 876.155 818.807 876.155C858.379 876.155 898.134 878.118 937 881.988C939.935 882.273 942.924 882.63 945.95 882.979C954.9 884.024 964.154 885.115 973.93 885.115C984.522 885.115 993.83 883.795 1002.38 881.089C1008.65 879.109 1013.66 874.34 1015.95 868.177C1024.56 845.021 1023.73 821.727 1022.91 799.204ZM683.439 65.2696C741.104 42.8566 809.188 30.8886 879.72 21.3596C885.754 242.613 880.59 475.045 882.315 700.599C738.518 712.622 619.574 763.29 520.741 811.647C520.741 588.679 520.741 365.712 520.741 142.753C536.753 124.32 563.999 117.139 585.303 104.007" fill="#0F0F0F"/>
<path d="M138.506 29.1095C136.626 24.8915 398.028 82.9505 500.08 137.581C500.08 361.411 500.08 585.241 500.08 809.079C495.146 816.672 487.342 805.274 484.581 803.907C388.71 756.668 273.581 712.098 138.506 700.598C138.506 476.769 138.506 252.948 138.506 29.1095Z" fill="white"/>
<path d="M79.0972 98.8446C91.0102 98.6976 107.976 99.2116 117.055 98.8076C116.257 112.023 115.781 525.861 117.844 718.685C254.121 732.881 365.325 763.961 469.082 819.407C484.783 827.798 499.951 840.004 510.405 840.069C526.693 840.17 580.653 806.595 598.215 798.746C688.648 758.275 780.878 727.122 902.967 721.262C904.691 513.792 899.528 302.068 905.553 98.8906C917.366 99.9916 927.444 100.193 941.713 98.8446C941.713 322.675 941.713 546.505 941.713 770.335C805.509 767.336 709.584 784.696 605.964 816.821C574.674 826.514 540.962 849.468 512.991 850.395C498.135 850.89 482.856 842.407 463.918 834.896C352.833 790.894 236.2 767.39 79.0962 770.334C79.0972 546.504 79.0972 322.675 79.0972 98.8446Z" fill="white"/>
<path d="M1001.11 780.67C1001.11 807.824 1005.29 835.62 995.941 860.73C977.655 866.518 957.342 862.537 939.128 860.73C818.579 848.726 687.63 854.595 580.14 881.392C551.353 888.564 528.885 900.935 492.33 896.882C476.382 895.121 458.325 885.767 440.671 881.392C336.18 855.448 203.856 848.662 79.097 860.73C62.434 862.344 37.352 869.497 27.447 858.145C18.01 853.385 22.357 832.394 22.284 819.408C21.166 610.076 23.119 386.403 22.284 173.743C31.546 171.717 53.914 169.331 58.444 171.157C58.444 377.773 58.444 584.39 58.444 790.997C225.168 784.779 341.837 811.035 461.341 858.145C477.913 864.683 499.968 876.129 510.404 876.229C521.024 876.321 542.373 864.839 559.486 858.145C673.799 813.447 794.036 784.375 959.779 790.997C965.813 588.69 960.649 378.112 962.364 171.505C970.417 173.44 988.125 168.644 995.938 173.743C1005.38 178.502 1001.04 199.495 1001.11 212.48C1002.09 396.536 1001.11 592.587 1001.11 780.67Z" fill="white"/>
<path d="M138.506 29.1095C136.626 24.8915 398.028 82.9505 500.08 137.581C500.08 361.411 500.08 585.241 500.08 809.079C495.146 816.672 487.342 805.274 484.581 803.907C388.71 756.668 273.581 712.098 138.506 700.598C138.506 476.769 138.506 252.948 138.506 29.1095Z" fill="white"/>
<path d="M79.0972 98.8446C91.0102 98.6976 107.976 99.2116 117.055 98.8076C116.257 112.023 115.781 525.861 117.844 718.685C254.121 732.881 365.325 763.961 469.082 819.407C484.783 827.798 499.951 840.004 510.405 840.069C526.693 840.17 580.653 806.595 598.215 798.746C688.648 758.275 780.878 727.122 902.967 721.262C904.691 513.792 899.528 302.068 905.553 98.8906C917.366 99.9916 927.444 100.193 941.713 98.8446C941.713 322.675 941.713 546.505 941.713 770.335C805.509 767.336 709.584 784.696 605.964 816.821C574.674 826.514 540.962 849.468 512.991 850.395C498.135 850.89 482.856 842.407 463.918 834.896C352.833 790.894 236.2 767.39 79.0962 770.334C79.0972 546.504 79.0972 322.675 79.0972 98.8446Z" fill="white"/>
<path d="M1001.11 780.67C1001.11 807.824 1005.29 835.62 995.941 860.73C977.655 866.518 957.342 862.537 939.128 860.73C818.579 848.726 687.63 854.595 580.14 881.392C551.353 888.564 528.885 900.935 492.33 896.882C476.382 895.121 458.325 885.767 440.671 881.392C336.18 855.448 203.856 848.662 79.097 860.73C62.434 862.344 37.352 869.497 27.447 858.145C18.01 853.385 22.357 832.394 22.284 819.408C21.166 610.076 23.119 386.403 22.284 173.743C31.546 171.717 53.914 169.331 58.444 171.157C58.444 377.773 58.444 584.39 58.444 790.997C225.168 784.779 341.837 811.035 461.341 858.145C477.913 864.683 499.968 876.129 510.404 876.229C521.024 876.321 542.373 864.839 559.486 858.145C673.799 813.447 794.036 784.375 959.779 790.997C965.813 588.69 960.649 378.112 962.364 171.505C970.417 173.44 988.125 168.644 995.938 173.743C1005.38 178.502 1001.04 199.495 1001.11 212.48C1002.09 396.536 1001.11 592.587 1001.11 780.67Z" fill="white"/>
</svg>
